# xmcd
# 
# Track frame offsets:
#     150
#     19562
#     57677
#     78551
#     96460
#     114083
#     137448
# 
# Disc length: 2321
# 
# Revision: 5
# Processed by: cddbd v1.5.2PL0 Copyright (c) Steve Scherf et al.
# Submitted via: fre:ac v1.1beta1pre4
# 
DISCID=54090f07
DTITLE=Various Artist - Buena Vista Social Club_Buena Vista Social Club Sampler
DYEAR=2000
DGENRE=Folk
TTITLE0=Buena Vista Social Club - Chan Chan
TTITLE1=Gonzalez Ruben - Mandingo
TTITLE2=Afro Cuban All Stars - Pio Mentiroso
TTITLE3=Ferrer Ibrahim - Nuestra Ultima Cita
TTITLE4=Portuondo Omara - La Sitiera
TTITLE5=Gonzalez Ruben - Chanchuito
TTITLE6=Buena Vista Social Club - El Cuarto De Tula (Live)
EXTD=
EXTT0=
EXTT1=
EXTT2=
EXTT3=
EXTT4=
EXTT5=
EXTT6=
PLAYORDER=
